<?xml version="1.0" encoding="UTF-8" standalone="no"?>
<!DOCTYPE svg PUBLIC "-//W3C//DTD SVG 1.1//EN" "http://www.w3.org/Graphics/SVG/1.1/DTD/svg11.dtd">
<svg version="1.1" xmlns="http://www.w3.org/2000/svg" xmlns:xlink="http://www.w3.org/1999/xlink" preserveAspectRatio="xMidYMid meet" viewBox="0 0 640 640" width="640" height="640"><defs><path d="M320 26.67C158 26.67 26.67 158 26.67 320C26.67 482 158 613.33 320 613.33C482 613.33 613.33 482 613.33 320C613.33 158 482 26.67 320 26.67Z" id="b42MpMOidD"></path><path d="M640 320C640 305.28 628.05 293.33 613.33 293.33C598.61 293.33 586.67 305.28 586.67 320C586.67 467.04 467.04 586.67 320 586.67C172.96 586.67 53.33 467.04 53.33 320C53.33 172.96 172.96 53.33 320 53.33C391.59 53.33 458.77 81.32 509.2 132.12C519.57 142.57 536.45 142.64 546.92 132.27C557.37 121.89 557.44 105.01 547.05 94.56C486.55 33.59 405.91 0 320 0C143.55 0 0 143.55 0 320C0 496.45 143.55 640 320 640C496.45 640 640 496.45 640 320Z" id="aM5ZiNS2J"></path><path d="M346.67 426.67C346.67 421.33 346.67 394.67 346.67 346.67C394.67 346.67 421.33 346.67 426.67 346.67C441.39 346.67 453.33 334.72 453.33 320C453.33 305.28 441.39 293.33 426.67 293.33C421.33 293.33 394.67 293.33 346.67 293.33C346.67 245.33 346.67 218.67 346.67 213.33C346.67 198.61 334.72 186.67 320 186.67C305.28 186.67 293.33 198.61 293.33 213.33C293.33 218.67 293.33 245.33 293.33 293.33C245.33 293.33 218.67 293.33 213.33 293.33C198.61 293.33 186.67 305.28 186.67 320C186.67 334.72 198.61 346.67 213.33 346.67C218.67 346.67 245.33 346.67 293.33 346.67C293.33 394.67 293.33 421.33 293.33 426.67C293.33 441.39 305.28 453.33 320 453.33C334.72 453.33 346.67 441.39 346.67 426.67Z" id="i19d3ta1Aa"></path></defs><g><g><g><use xlink:href="#b42MpMOidD" opacity="1" fill="#f4e04d" fill-opacity="1"></use><g><use xlink:href="#b42MpMOidD" opacity="1" fill-opacity="0" stroke="#000000" stroke-width="1" stroke-opacity="0"></use></g></g><g><use xlink:href="#aM5ZiNS2J" opacity="1" fill="#012e52" fill-opacity="1"></use><g><use xlink:href="#aM5ZiNS2J" opacity="1" fill-opacity="0" stroke="#000000" stroke-width="1" stroke-opacity="0"></use></g></g><g><use xlink:href="#i19d3ta1Aa" opacity="1" fill="#012e52" fill-opacity="1"></use><g><use xlink:href="#i19d3ta1Aa" opacity="1" fill-opacity="0" stroke="#000000" stroke-width="1" stroke-opacity="0"></use></g></g></g></g></svg>